<svg preserveAspectRatio="none" overflow="visible" style="display: block;" width="16" height="16" viewBox="0 0 16 16" fill="none" xmlns="http://www.w3.org/2000/svg">
<g id="Frame" clip-path="url(#clip0_0_10)">
<g id="Vector">
</g>
<path id="Vector_2" d="M12 6.8C12 7.9475 11.6275 9.0075 11 9.8675L14.165 13.035C14.4775 13.3475 14.4775 13.855 14.165 14.1675C13.8525 14.48 13.345 14.48 13.0325 14.1675L9.8675 11C9.0075 11.6275 7.9475 12 6.8 12C3.9275 12 1.6 9.6725 1.6 6.8C1.6 3.9275 3.9275 1.6 6.8 1.6C9.6725 1.6 12 3.9275 12 6.8ZM6.8 10.4C8.7875 10.4 10.4 8.7875 10.4 6.8C10.4 4.8125 8.7875 3.2 6.8 3.2C4.8125 3.2 3.2 4.8125 3.2 6.8C3.2 8.7875 4.8125 10.4 6.8 10.4Z" fill="white" fill-opacity="0.5"/>
</g>
<defs>
<clipPath id="clip0_0_10">
<rect width="16" height="16" fill="white"/>
</clipPath>
</defs>
</svg>
